# xmcd
#
# Track frame offsets:
#	150
#	11496
#	20522
#	30507
#	40458
#	51438
#	62195
#	74194
#	86843
#	95694
#	110108
#	122470
#	134669
#	144010
#	156435
#	168000
#	179815
#	193795
#	205907
#	217927
#	228510
#	241195
#	257072
#	268834
#	279204
#
# Disc length: 3853 seconds
#
# Revision: 0
# Processed by: cddbd v1.5.2PL0 Copyright (c) Steve Scherf et al.
# Submitted via: audiograbber 1.83.01
#
DISCID=7b0f0b19
DTITLE=Dave Dudley - Truck Drivin' Son-Of-A-Gun: The Definitive Collection  CD2
DTITLE=/2
DYEAR=2016
DGENRE=Country
TTITLE0=I Washed My Face In The Morning Dew
TTITLE1=Keep On Truckin'
TTITLE2=Two Six Packs Away
TTITLE3=Truck Drivin' Son-Of-A-Gun
TTITLE4=Truckin' Dad
TTITLE5=One More Mile
TTITLE6=Trucker's Prayer
TTITLE7=This Night (Ain't Fit For Anything But Drinking)
TTITLE8=It Takes Time
TTITLE9=Farewell To The Road
TTITLE10=Rollin's All Gone Out Of This Rollin' Stone
TTITLE11=Original Travelling Man
TTITLE12=Bullshippers
TTITLE13=I Almost Didn't Make It Through The Door
TTITLE14=Sentimental Journey
TTITLE15=Where Did All The Cowboys Go
TTITLE16=Counterfeit Cowboy
TTITLE17=How Come It Took So Long (To Say Goodbye)
TTITLE18=Fireball Rolled A Seven
TTITLE19=Through Hell And Half Of Georgia
TTITLE20=I Can See You In The Windshield
TTITLE21=Me And Bobby McGee
TTITLE22=Tulsa Telephone Book
TTITLE23=My Body's At Home (But My Heart's On The Road)
TTITLE24=Pullin' Double
EXTD=
EXTT0=
EXTT1=
EXTT2=
EXTT3=
EXTT4=
EXTT5=
EXTT6=
EXTT7=
EXTT8=
EXTT9=
EXTT10=
EXTT11=
EXTT12=
EXTT13=
EXTT14=
EXTT15=
EXTT16=
EXTT17=
EXTT18=
EXTT19=
EXTT20=
EXTT21=
EXTT22=
EXTT23=
EXTT24=
PLAYORDER=
